<svg width="187" height="62" viewBox="0 0 187 62" fill="none" xmlns="http://www.w3.org/2000/svg">
<path d="M43.44 2.44C45.04 2.44 56.96 3.31999 56.96 5.32C56.96 5.72 56.72 6.03999 56.48 6.27999C55.2 7.79999 54.64 9.4 53.68 11L53.2 11.24C48.48 11.24 43.68 11.08 38.96 11.08C35.76 11.08 32.56 11.4 29.36 11.4C28.72 11.88 23.44 23.96 22.8 25.32C24.4 24.84 27.36 24.84 29.12 24.84C30.4 24.84 38 25.16 38 27.16C38 27.24 34.4 33 34 33.24C31.2 33.24 28.4 32.68 25.6 32.68C23.44 32.68 21.28 33.16 19.2 33.08C15.68 40.12 12.48 47.08 9.92 54.6H10.08C10.8 54.28 13.2 53.72 13.6 53.24C14.64 53.24 19.92 51.24 21.04 50.84C23.92 49.8 27.76 48.76 30.88 48.76C33.44 48.76 35.6 49.88 35.6 52.76C35.6 54.44 32.64 56.76 31.12 56.76C30.8 56.76 30.8 56.36 30.56 56.2C29.52 56.28 28.32 57.24 27.2 57.32L26.96 57.64C26.24 57.64 24.32 58.28 23.68 58.68H23.28C22.88 58.92 19.04 60.2 18.56 60.2C16.72 61.08 13.6 61.56 11.6 61.56H10.88C10.48 61.32 8.16 61.32 7.44 61.24C3.04 60.6 0.32 57.64 0.32 53.16C0.32 47.64 5.92 37.64 8.48 32.6C5.52 31.88 4.32 29.64 4.32 26.68C4.32 26.28 4.4 25.16 4.96 25.16C4.96 25.08 5.04 25.08 5.04 25.08C5.12 25.08 5.76 25.64 5.84 25.72C6.72 26.28 7.76 26.52 8.8 26.52C9.2 26.36 11.36 26.28 11.92 26.2C14.48 21.4 17.04 16.6 19.52 11.72C16 11.56 11.6 11.64 11.6 7.16C11.6 6.84 11.6 6.27999 11.76 5.95999C12 6.2 13.04 6.2 13.28 6.2C15.76 6.2 21.68 4.43999 23.28 4.6C23.68 3.63999 24.4 2.51999 24.4 1.47999C24.4 1.32 24.32 0.839993 24.16 0.759994C24 0.119992 25.28 0.0399933 25.6 0.0399933C27.6 0.0399933 29.68 1.23999 30.32 3.24L30.48 3.39999C34.8 3.24 39.12 2.44 43.44 2.44Z" fill="white"/>
<path d="M74.3131 26.36C76.2331 26.36 76.9531 29 76.9531 30.52C76.9531 31.4 77.0331 31.88 76.3131 32.52C75.0331 33.72 73.1931 34.52 71.7531 35.48C69.5131 36.92 58.7931 45 58.7931 46.52C58.7931 47.16 60.2331 53.32 61.4331 53.32C64.3931 53.32 70.8731 44.04 73.4331 41.72C73.9131 41.72 74.9531 42.28 74.9531 42.84C74.9531 44.36 66.7931 55.64 64.9531 57.64L64.5531 57.88C64.5531 58.68 62.6331 58.76 62.0731 58.76H60.7131C58.8731 58.76 58.0731 57.96 56.7131 56.92C56.2331 56.6 53.5931 54.2 53.5131 53.8C53.1931 53.16 52.3931 52.76 52.2331 52.04L51.8331 51.56C49.3531 53.72 42.5531 59.08 39.2731 59.08C36.8731 59.08 37.9931 57.64 36.9531 56.68L36.3131 55.08C36.7131 54.76 37.0331 54.36 37.4331 54.04C38.4731 53 39.3531 51.48 40.3931 50.36C42.8731 47.64 45.5931 45.08 48.2331 42.6C52.2331 38.76 51.5931 39.08 51.5931 33.48C51.5931 32.84 51.8331 32.2 51.8331 31.56C51.8331 31.32 51.8331 31 51.5931 30.92L51.3531 31.16C50.9531 31.08 50.6331 30.36 50.6331 30.04C50.6331 29.48 50.8731 29 51.1131 28.6C51.3531 27.56 52.4731 26.52 53.5131 26.52C56.2331 26.52 57.3531 34.36 58.1531 35.24C58.3931 35.24 69.1931 26.36 74.3131 26.36Z" fill="white"/>
<path d="M79.8025 59C79.6425 59 78.1225 58.2 77.9625 58.12C75.3225 56.92 72.9225 54.12 71.4825 51.64C71.4825 50.76 70.7625 49.96 70.6825 49C70.6825 48.68 70.7625 48.04 70.5225 47.72C70.5225 45.24 71.2425 41.32 72.8425 39.32C72.8425 38.76 75.9625 34.76 76.4425 34.2C78.2025 32.2 82.4425 27.96 85.3225 27.96C86.1225 27.96 86.9225 28.36 87.4025 28.92C87.6425 29.48 88.0425 29.96 88.4425 30.44C89.8025 29.24 92.2025 27.4 94.1225 27.4C96.7625 27.4 98.3625 32.04 98.3625 34.2C98.3625 35.08 98.2825 37.48 97.7225 38.2C97.7225 38.84 96.0425 43.32 95.7225 43.64C92.9225 49.16 86.7625 59 79.8025 59ZM95.2425 30.92C89.8025 32.04 84.6025 42.92 83.0025 47.88C82.8425 48.28 82.6025 48.84 82.6025 49.32V49.48C82.8425 49.48 83.0025 49.32 83.1625 49.24C87.6425 46.68 95.2425 37.32 95.2425 31.8V30.92ZM78.7625 44.68C78.7625 45.24 78.4425 45.8 78.2825 46.36C77.8825 47.72 77.8825 49.56 77.8825 50.92C77.8825 51.08 77.8825 51.32 78.0425 51.32C78.4425 51.32 80.1225 50.76 80.4425 50.68C80.4425 49.8 80.5225 47.48 80.9225 46.6C81.0825 43.08 83.8025 38.92 84.5225 35.56C83.8825 35.72 79.4825 42.92 79.0025 44.2C78.8425 44.28 78.7625 44.52 78.7625 44.68Z" fill="white"/>
<path d="M105.457 59.16C104.337 59.16 103.377 58.52 102.417 58.04C98.0969 55.72 97.0569 54.52 97.0569 49.48C97.0569 41.96 108.097 27.4 116.497 27.4C119.537 27.4 120.817 29.08 122.817 31C124.817 28.2 125.697 24.44 127.697 21.56C129.697 18.68 130.897 14.84 132.577 11.72C133.057 10.84 133.697 10.12 134.097 9.23999C134.337 8.76 135.697 5.72 135.697 5.23999C135.697 4.43999 134.817 4.19999 134.817 3.63999C134.817 3.07999 135.377 2.51999 135.937 2.51999C136.977 2.51999 139.297 5.4 139.777 6.27999C140.417 7.47999 140.577 9.55999 140.577 10.92C140.577 11 140.257 11.24 140.257 11.72C140.257 13.16 139.537 14.6 139.137 15.96C139.137 16.04 138.977 16.2 139.057 16.2C139.137 16.2 139.377 15.96 139.377 15.88L138.977 16.52C138.737 16.92 138.737 17.32 138.577 17.72C137.937 19.56 136.977 21.32 136.097 23.16C133.617 28.52 124.097 49.32 124.097 54.76C124.097 54.84 124.017 55 124.177 55C126.017 55 132.017 41.96 133.857 41.96C134.177 41.96 134.577 41.96 134.577 42.36C134.577 42.76 134.257 43.24 134.017 43.56C131.857 46.92 130.177 50.76 128.657 54.44C127.777 56.6 126.257 59.96 123.457 59.96C122.737 59.96 121.937 59.72 121.217 59.48C117.057 57.96 116.177 56.52 116.177 52.12C116.177 50.28 116.897 48.6 116.897 46.84C116.897 46.68 116.897 46.44 116.897 46.28C115.457 49.16 110.177 57.64 107.057 58.6C106.577 58.92 106.097 59.16 105.457 59.16ZM118.817 33.16C118.337 33.16 118.017 33.64 117.617 33.88C112.257 37.24 105.297 46.76 105.297 53.32C105.297 53.48 105.377 53.72 105.537 53.72C108.097 53.72 117.137 41.8 118.737 39.48L118.017 39.4C117.697 39.24 117.377 39.16 117.057 39.08L116.897 38.76C116.897 38.6 118.977 35.96 118.977 33.8C118.977 33.72 119.057 33.16 118.817 33.16Z" fill="white"/>
<path d="M145.309 48.04C143.549 50.28 138.029 58.52 135.549 58.84C135.389 58.84 135.229 58.92 135.069 58.92C133.149 58.92 130.829 56.68 129.629 55.4C128.989 54.76 128.509 52.52 128.509 51.64C128.509 51.16 128.749 50.76 128.749 50.2C128.749 48.28 130.829 43.64 132.109 42.36C133.309 39.72 140.749 27 143.069 27C143.949 27 144.509 28.12 144.989 28.68C146.509 30.44 146.589 31.08 146.589 33.48C146.589 34.36 145.469 36.28 144.989 37C145.069 37.4 144.269 38.6 144.029 38.92C142.269 41.4 140.189 46.04 139.069 48.92C139.229 48.92 140.269 47.96 140.349 47.8C144.829 43.32 148.989 38.6 153.229 33.96C154.989 32.04 156.349 30.04 157.949 28.04C158.269 27.64 158.829 27 159.389 27C161.309 27 162.669 31.16 162.669 32.68C162.669 32.92 162.669 34.76 162.349 34.84C162.269 35.08 162.189 35.4 162.189 35.64C162.189 35.88 162.429 36.36 162.269 36.6C161.789 38.2 161.389 39.88 160.589 41.32C159.629 43.16 155.229 51.24 154.989 52.6C156.669 52.52 165.709 41.08 167.229 41.08C167.789 41.08 168.109 41.64 168.109 42.2C168.109 42.44 168.029 42.6 167.869 42.76C164.589 46.92 161.069 50.92 158.269 55.4C156.989 57.48 155.469 60.2 152.669 60.2C152.189 60.2 151.709 60.12 151.309 59.88C150.749 59.88 149.149 58.36 148.589 57.96C146.829 56.68 144.909 54.76 144.909 52.52C144.909 51.16 145.149 49.88 145.149 48.6L145.389 48.2C145.389 48.12 145.389 48.12 145.309 48.04Z" fill="white"/>
<path d="M182.771 47C182.771 51.32 181.171 54.44 178.131 57.32C176.611 58.76 173.731 59.08 171.731 59.08C170.211 59.08 168.611 58.6 167.171 58.2C163.731 57.24 161.891 53.08 161.891 49.72C161.891 45.88 163.891 39.8 168.531 39.8C170.931 39.8 173.011 42.04 173.491 42.04C173.571 42.04 173.651 41.96 173.651 41.96C173.651 41.72 173.011 40.36 172.851 40.04C172.771 38.68 171.091 37.08 171.091 35.72C170.691 34.84 170.451 34.36 170.451 33.32C170.451 30.44 174.131 25.64 177.171 25.64C178.691 25.64 179.891 26.2 181.011 27.08C181.331 26.44 182.851 24.36 183.571 24.36C184.851 24.36 186.851 26.12 186.851 27.4C186.851 30.2 184.131 32.68 184.131 35.4C184.131 36.44 185.091 36.76 185.091 37.16C185.091 37.64 184.611 37.8 184.211 37.8C182.851 37.8 181.011 36.52 180.451 35.4C180.131 34.68 180.051 31.08 180.051 30.2C180.051 30.2 180.051 30.12 179.971 30.12C179.251 30.12 176.931 34.2 176.931 35.16C176.931 37.16 182.131 41.48 182.531 45L182.611 45.48C182.691 45.96 182.771 46.52 182.771 47ZM167.651 54.2C171.331 54.2 173.731 46.36 173.731 43.48C173.731 43.48 173.731 43.08 173.571 43.08C172.131 43.08 167.091 50.76 167.091 52.92C167.091 53.4 167.011 54.2 167.651 54.2Z" fill="white"/>
</svg>
